<svg viewBox="0 0 2167 383" xmlns="http://www.w3.org/2000/svg" xmlns:xlink="http://www.w3.org/1999/xlink">  
    <style type="text/css">
        svg {
            dominant-baseline: hanging;
        }

        @keyframes anim {
            0% {
                transform: rotate(45deg) translateY(-400%);
            }
            to {
                transform: rotate(45deg) translateY(-925%);
            }
        }

        #anim {
            animation: anim infinite linear 60s; 
        }
    </style>
    <defs>  
        <mask id="mask" x="0" y="0">
          <path d="M 479.5 321.5 L 338.5 321.5 L 338.5 276.5 L 293 276.5 L 293 226 L 343.5 226 L 343.5 271.5 L 474.5 271.5 L 474.5 185.5 L 338.5 185.5 L 338.5 140.5 L 293 140.5 L 293 45.5 L 338.5 45.5 L 338.5 0 L 479.5 0 L 479.5 45.5 L 525.5 45.5 L 525.5 95.5 L 474.5 95.5 L 474.5 50.5 L 343.5 50.5 L 343.5 136 L 479.5 136 L 479.5 180.5 L 525.5 180.5 L 525.5 276.5 L 479.5 276.5 L 479.5 321.5 Z M 929.5 321.5 L 879 321.5 L 879 0 L 929.5 0 L 929.5 45.5 L 974.5 45.5 L 974.5 90.5 L 1020.5 90.5 L 1020.5 226 L 1060.5 226 L 1060.5 0 L 1111.5 0 L 1111.5 321.5 L 1060.5 321.5 L 1060.5 276.5 L 1015.5 276.5 L 1015.5 231 L 969.5 231 L 969.5 95.5 L 929.5 95.5 L 929.5 321.5 Z M 186.5 321.5 L 45.5 321.5 L 45.5 276.5 L 0 276.5 L 0 180.5 L 50.5 180.5 L 50.5 271.5 L 181.5 271.5 L 181.5 50.5 L 45.5 50.5 L 45.5 0 L 186.5 0 L 186.5 45.5 L 232.5 45.5 L 232.5 276.5 L 186.5 276.5 L 186.5 321.5 Z M 772.5 321.5 L 631.5 321.5 L 631.5 276.5 L 586 276.5 L 586 45.5 L 631.5 45.5 L 631.5 0 L 772.5 0 L 772.5 45.5 L 818.5 45.5 L 818.5 276.5 L 772.5 276.5 L 772.5 321.5 Z M 636.5 50.5 L 636.5 271.5 L 767.5 271.5 L 767.5 50.5 L 636.5 50.5 Z" fill="#fff" vector-effect="non-scaling-stroke"/>
        </mask>  
    </defs>
    <g mask="url(#mask)">
        <g id="anim">
            <rect width="1000%" height="100%" fill="#fb4934"/>
            <rect width="1000%" height="100%" y="75%" fill="#fe8019"/>
            <rect width="1000%" height="100%" y="150%" fill="#fabd2f"/>
            <rect width="1000%" height="100%" y="225%" fill="#b8bb26"/>
            <rect width="1000%" height="100%" y="300%" fill="#8ec07c"/>
            <rect width="1000%" height="100%" y="375%" fill="#83a598"/>
            <rect width="1000%" height="100%" y="450%" fill="#d3869b"/>

            <rect width="1000%" height="100%" y="525%" fill="#fb4934"/>
            <rect width="1000%" height="100%" y="600%" fill="#fe8019"/>
            <rect width="1000%" height="100%" y="675%" fill="#fabd2f"/>
            <rect width="1000%" height="100%" y="750%" fill="#b8bb26"/>
            <rect width="1000%" height="100%" y="825%" fill="#8ec07c"/>
            <rect width="1000%" height="100%" y="900%" fill="#83a598"/>
            <rect width="1000%" height="100%" y="975%" fill="#d3869b"/>
        </g>
    </g>
</svg>